<svg width="279" height="279" viewBox="0 0 279 279" fill="none" xmlns="http://www.w3.org/2000/svg">
<path d="M78.8203 126C88.8902 126 97.6806 130.09 104.271 136.54H104.28L104.95 137.23L142.46 174.73C149.21 181.49 153 190.641 153 200.19V240C153 241.66 151.66 243 150 243H120C118.34 243 117 241.66 117 240V171C117 166.03 112.97 162 108 162H39C37.34 162 36 160.66 36 159V129C36 127.34 37.34 126 39 126H78.8203Z" fill="white"/>
<path d="M123.82 81C133.89 81.0001 142.681 85.0901 149.271 91.54H149.28L149.95 92.2305L187.46 129.73C194.21 136.49 198 145.641 198 155.19V240C198 241.66 196.66 243 195 243H165C163.34 243 162 241.66 162 240V126C162 121.03 157.97 117 153 117H39C37.34 117 36 115.66 36 114V84C36 82.34 37.34 81 39 81H123.82Z" fill="white"/>
<path d="M168.82 36C178.89 36.0001 187.681 40.0901 194.271 46.54H194.28L194.95 47.2305L232.46 84.7305C239.21 91.4904 243 100.641 243 110.19V240C243 241.66 241.66 243 240 243H210C208.34 243 207 241.66 207 240V81C207 76.03 202.97 72 198 72H39C37.34 72 36 70.66 36 69V39C36 37.34 37.34 36 39 36H168.82Z" fill="white"/>
</svg>
