<svg width="279" height="279" viewBox="0 0 279 279" fill="none" xmlns="http://www.w3.org/2000/svg">
<path d="M39 128H78.8203C88.3207 128 96.6204 131.852 102.871 137.97L103.055 138.148L103.515 138.623L103.536 138.645L141.046 176.145C147.421 182.53 151 191.172 151 200.19V240C151 240.555 150.555 241 150 241H120C119.445 241 119 240.555 119 240V171C119 164.925 114.075 160 108 160H39C38.4446 160 38 159.555 38 159V129C38 128.445 38.4446 128 39 128ZM39 83H123.82C133.321 83.0001 141.62 86.8518 147.871 92.9697L148.055 93.1484L148.515 93.623L148.536 93.6445L186.046 131.145C192.421 137.53 196 146.172 196 155.19V240C196 240.555 195.555 241 195 241H165C164.445 241 164 240.555 164 240V126C164 119.925 159.075 115 153 115H39C38.4446 115 38 114.555 38 114V84C38 83.4446 38.4446 83 39 83ZM39 38H168.82C178.321 38.0001 186.62 41.8518 192.871 47.9697L193.055 48.1484L193.515 48.623L193.536 48.6445L231.046 86.1445C237.421 92.5299 241 101.172 241 110.19V240C241 240.555 240.555 241 240 241H210C209.445 241 209 240.555 209 240V81C209 74.9254 204.075 70 198 70H39C38.4446 70 38 69.5554 38 69V39C38 38.4446 38.4446 38 39 38Z" stroke="#2C08AC" stroke-width="4"/>
</svg>
